<svg width="42" height="40" viewBox="0 0 42 40" fill="none" xmlns="http://www.w3.org/2000/svg">
<path d="M12.8419 7.02593C6.09326 10.9222 3.55104 19.3063 6.80841 26.2321C8.95749 30.0604 14.8418 31.9618 18.3116 27.0655C18.9473 26.1684 19.3068 25.2582 19.4921 24.3387C20.3283 20.1905 17.6218 15.8504 20.7533 11.6514C21.7496 10.2169 24.9932 7.60541 29.9963 8.63462C26.4461 5.57685 21.6146 4.35873 17.0264 5.38875C15.5922 5.71069 14.1819 6.25226 12.8419 7.02593Z" fill="#9EABDE"/>
<path d="M29.9964 8.63471C24.9932 7.60551 21.7497 10.217 20.7533 11.6515C17.6219 15.8505 20.3283 20.1906 19.4922 24.3388C20.1144 21.0729 17.5486 19.1291 14.5162 15.3192C12.34 12.5849 11.6058 7.27702 17.0264 5.38884C21.6147 4.35883 26.4462 5.57695 29.9964 8.63471Z" fill="#6A749A"/>
<path d="M34.492 14.3909C37.6865 21.3459 35.0684 29.7066 28.2848 33.5416C26.9378 34.3031 25.5226 34.8319 24.0856 35.1408C29.5231 33.3018 28.8371 27.9875 26.6857 25.2336C23.688 21.3964 21.1398 19.4294 21.7916 16.1693C21.9853 15.2515 22.353 14.3446 22.9968 13.4533C26.5108 8.58862 32.3777 10.5433 34.492 14.3909Z" fill="#6284F5"/>
<path d="M11.1454 31.7776C16.1391 32.8521 19.4061 30.2701 20.4155 28.8447C23.5849 24.6742 20.9178 20.3098 21.7915 16.1694C21.1397 19.4295 23.6878 21.3965 26.6855 25.2337C28.8369 27.9875 29.523 33.3019 24.0855 35.1409C19.488 36.1293 14.6678 34.8674 11.1454 31.7776Z" fill="#4A60AA"/>
</svg>
